<svg width="1087" height="736" viewBox="0 0 1087 736" fill="none" xmlns="http://www.w3.org/2000/svg">
<g opacity="0.52">
<g style="mix-blend-mode:overlay">
<path d="M121.239 185.302L517.739 179.302L326.021 583.302H121.239V185.302Z" fill="#1C1F36" fill-opacity="0.6"/>
</g>
<g style="mix-blend-mode:overlay">
<path d="M949.276 271.11L1028.51 659.658L617.144 692L558.144 344.726L949.276 271.11Z" fill="#1C1F36" fill-opacity="0.6"/>
</g>
<g style="mix-blend-mode:overlay">
<path d="M641.239 187.302L893.739 102.803L772.239 300.803L528.739 300.803L641.239 187.302Z" fill="#1C1F36" fill-opacity="0.6"/>
</g>
<path d="M483.868 154.552C483.868 154.552 228.739 389.302 218.868 613.552" stroke="#282B4C" stroke-width="13"/>
<path d="M503.105 170.319C503.105 170.319 247.976 405.069 238.105 629.319" stroke="#282B4C" stroke-width="13"/>
<path d="M524.105 183.319C524.105 183.319 268.976 418.069 259.105 642.319" stroke="#282B4C" stroke-width="13"/>
<line x1="724.879" y1="108.534" x2="567.879" y2="382.534" stroke="#282B4C" stroke-width="13"/>
<line x1="350.868" y1="130.552" x2="85.8679" y2="589.552" stroke="#282B4C" stroke-width="13"/>
<path d="M230.123 78.205L245.332 105.364L266.121 126.752L250.148 151.336L226.277 128.558L215.192 103.063L230.123 78.205Z" fill="#282B4C"/>
<path d="M271.791 134.347L306.2 145.837L324.381 144.074L307.406 169.355L288.309 169.902L256.584 158.596L271.791 134.347Z" fill="#282B4C"/>
<path d="M246.841 46.3621L262.051 73.5215L282.84 94.9089L266.866 119.493L249.078 99.2095L231.911 71.2197L246.841 46.3621Z" fill="#282B4C"/>
<path d="M290.014 102.642L324.423 114.132L342.387 111.851L326.746 139.513L308.147 140.098L274.807 126.891L290.014 102.642Z" fill="#282B4C"/>
<path d="M187.936 147.92L203.146 175.08L221.979 194.188L207.139 220.092L173.006 172.778L187.936 147.92Z" fill="#282B4C"/>
<path d="M229.175 199.748L260.976 210.732L281.756 209.744L261.707 240.421L214.716 224.142L221.946 211.945L229.175 199.748Z" fill="#282B4C"/>
<path d="M207.93 112.591L223.139 139.751L243.928 161.138L227.955 185.722L210.269 167.452L192.999 137.449L207.93 112.591Z" fill="#282B4C"/>
<path d="M249.883 164.995L284.292 176.486L304.923 175.554L286.615 201.866L266.277 202.319L234.676 189.245L249.883 164.995Z" fill="#282B4C"/>
<path d="M149.969 208.48L165.179 235.639L185.968 257.026L169.995 281.611L146.124 258.833L135.039 233.337L149.969 208.48Z" fill="#282B4C"/>
<path d="M191.638 264.621L226.047 276.112L244.228 274.349L227.253 299.629L208.156 300.177L176.431 288.87L191.638 264.621Z" fill="#282B4C"/>
<path d="M166.688 176.637L181.897 203.796L202.686 225.184L186.713 249.768L168.925 229.484L151.758 201.494L166.688 176.637Z" fill="#282B4C"/>
<path d="M209.861 232.917L244.27 244.407L262.234 242.126L246.593 269.787L227.994 270.373L194.654 257.166L209.861 232.917Z" fill="#282B4C"/>
<path d="M107.783 278.195L122.992 305.354L141.826 324.463L126.985 350.367L92.8525 303.053L107.783 278.195Z" fill="#282B4C"/>
<path d="M149.022 330.022L180.823 341.007L201.603 340.019L181.554 370.696L134.563 354.417L141.792 342.219L149.022 330.022Z" fill="#282B4C"/>
<path d="M127.776 242.866L142.986 270.025L163.775 291.413L147.802 315.997L130.116 297.727L112.846 267.724L127.776 242.866Z" fill="#282B4C"/>
<path d="M169.73 295.27L204.139 306.76L224.77 305.829L206.462 332.141L186.123 332.593L154.523 319.519L169.73 295.27Z" fill="#282B4C"/>
<path d="M69.5878 341.746L84.7974 368.905L105.586 390.292L89.6133 414.877L65.7423 392.099L54.6575 366.603L69.5878 341.746Z" fill="#282B4C"/>
<path d="M111.256 397.887L145.665 409.378L163.846 407.615L146.871 432.895L127.774 433.443L96.0491 422.136L111.256 397.887Z" fill="#282B4C"/>
<path d="M86.3065 309.903L101.516 337.062L122.305 358.45L106.332 383.034L88.5439 362.75L71.3762 334.76L86.3065 309.903Z" fill="#282B4C"/>
<path d="M129.479 366.183L163.888 377.673L181.852 375.392L166.211 403.053L147.612 403.639L114.272 390.432L129.479 366.183Z" fill="#282B4C"/>
<path d="M27.4015 411.461L42.6111 438.62L61.4445 457.729L46.6038 483.633L12.4712 436.319L27.4015 411.461Z" fill="#282B4C"/>
<path d="M68.6405 463.288L100.442 474.273L121.221 473.285L101.172 503.962L54.1813 487.683L61.4109 475.485L68.6405 463.288Z" fill="#282B4C"/>
<path d="M47.3949 376.132L62.6045 403.291L83.3935 424.679L67.4205 449.263L49.7344 430.993L32.4646 400.989L47.3949 376.132Z" fill="#282B4C"/>
<path d="M89.3482 428.536L123.757 440.026L144.388 439.095L126.08 465.407L105.742 465.859L74.1415 452.785L89.3482 428.536Z" fill="#282B4C"/>
<path d="M230.123 78.205L245.332 105.364L266.121 126.752L250.148 151.336L226.277 128.558L215.192 103.063L230.123 78.205Z" fill="#282B4C"/>
<path d="M271.791 134.347L306.2 145.837L324.381 144.074L307.406 169.355L288.309 169.902L256.584 158.596L271.791 134.347Z" fill="#282B4C"/>
<path d="M246.841 46.3621L262.051 73.5215L282.84 94.9089L266.866 119.493L249.078 99.2095L231.911 71.2197L246.841 46.3621Z" fill="#282B4C"/>
<path d="M290.014 102.642L324.423 114.132L342.387 111.851L326.746 139.513L308.147 140.098L274.807 126.891L290.014 102.642Z" fill="#282B4C"/>
<path d="M187.936 147.92L203.146 175.08L221.979 194.188L207.139 220.092L173.006 172.778L187.936 147.92Z" fill="#282B4C"/>
<path d="M229.175 199.748L260.976 210.732L281.756 209.744L261.707 240.421L214.716 224.142L221.946 211.945L229.175 199.748Z" fill="#282B4C"/>
<path d="M207.93 112.591L223.139 139.751L243.928 161.138L227.955 185.722L210.269 167.452L192.999 137.449L207.93 112.591Z" fill="#282B4C"/>
<path d="M249.883 164.995L284.292 176.486L304.923 175.554L286.615 201.866L266.277 202.319L234.676 189.245L249.883 164.995Z" fill="#282B4C"/>
<path d="M149.969 208.48L165.179 235.639L185.968 257.026L169.995 281.611L146.124 258.833L135.039 233.337L149.969 208.48Z" fill="#282B4C"/>
<path d="M191.638 264.621L226.047 276.112L244.228 274.349L227.253 299.629L208.156 300.177L176.431 288.87L191.638 264.621Z" fill="#282B4C"/>
<path d="M166.688 176.637L181.897 203.796L202.686 225.184L186.713 249.768L168.925 229.484L151.758 201.494L166.688 176.637Z" fill="#282B4C"/>
<path d="M209.861 232.917L244.27 244.407L262.234 242.126L246.593 269.787L227.994 270.373L194.654 257.166L209.861 232.917Z" fill="#282B4C"/>
<path d="M107.783 278.195L122.992 305.354L141.826 324.463L126.985 350.367L92.8525 303.053L107.783 278.195Z" fill="#282B4C"/>
<path d="M149.022 330.022L180.823 341.007L201.603 340.019L181.554 370.696L134.563 354.417L141.792 342.219L149.022 330.022Z" fill="#282B4C"/>
<path d="M127.776 242.866L142.986 270.025L163.775 291.413L147.802 315.997L130.116 297.727L112.846 267.724L127.776 242.866Z" fill="#282B4C"/>
<path d="M169.73 295.27L204.139 306.76L224.77 305.829L206.462 332.141L186.123 332.593L154.523 319.519L169.73 295.27Z" fill="#282B4C"/>
<path d="M69.5878 341.746L84.7974 368.905L105.586 390.292L89.6133 414.877L65.7423 392.099L54.6575 366.603L69.5878 341.746Z" fill="#282B4C"/>
<path d="M111.256 397.887L145.665 409.378L163.846 407.615L146.871 432.895L127.774 433.443L96.0491 422.136L111.256 397.887Z" fill="#282B4C"/>
<path d="M86.3065 309.903L101.516 337.062L122.305 358.45L106.332 383.034L88.5439 362.75L71.3762 334.76L86.3065 309.903Z" fill="#282B4C"/>
<path d="M129.479 366.183L163.888 377.673L181.852 375.392L166.211 403.053L147.612 403.639L114.272 390.432L129.479 366.183Z" fill="#282B4C"/>
<path d="M27.4015 411.461L42.6111 438.62L61.4445 457.729L46.6038 483.633L12.4712 436.319L27.4015 411.461Z" fill="#282B4C"/>
<path d="M68.6405 463.288L100.442 474.273L121.221 473.285L101.172 503.962L54.1813 487.683L61.4109 475.485L68.6405 463.288Z" fill="#282B4C"/>
<path d="M47.3949 376.132L62.6045 403.291L83.3935 424.679L67.4205 449.263L49.7344 430.993L32.4646 400.989L47.3949 376.132Z" fill="#282B4C"/>
<path d="M89.3482 428.536L123.757 440.026L144.388 439.095L126.08 465.407L105.742 465.859L74.1415 452.785L89.3482 428.536Z" fill="#282B4C"/>
<path d="M795.308 498.896L765.42 507.595L742.559 521.638L720.665 501.343L774.454 478.749L795.308 498.896Z" fill="#282B4C"/>
<path d="M735.521 527.397L717.654 555.906L713.934 576.373L688.564 549.927L715.012 507.813L725.267 517.605L735.521 527.397Z" fill="#282B4C"/>
<path d="M825.224 526.336L795.336 535.034L769.814 550.47L749.461 529.368L771.246 516.254L804.369 506.188L825.224 526.336Z" fill="#282B4C"/>
<path d="M764.714 555.403L745.766 586.338L742.025 606.648L720.515 582.883L724.657 562.965L744.515 535.123L764.714 555.403Z" fill="#282B4C"/>
<path d="M658.164 484.772L642.065 458.13L620.581 437.441L635.733 412.342L660.344 434.319L672.265 459.434L658.164 484.772Z" fill="#282B4C"/>
<path d="M614.664 430.038L579.894 419.691L561.781 422.054L577.911 396.226L596.979 395.048L629.061 405.299L614.664 430.038Z" fill="#282B4C"/>
<path d="M642.507 517.15L626.409 490.508L604.924 469.819L620.076 444.72L638.525 464.405L656.608 491.812L642.507 517.15Z" fill="#282B4C"/>
<path d="M597.499 462.327L562.728 451.98L544.85 454.854L559.568 426.691L578.137 425.491L611.896 437.589L597.499 462.327Z" fill="#282B4C"/>
<path d="M698.024 413.7L681.925 387.058L662.47 368.583L676.447 342.203L712.125 388.363L698.024 413.7Z" fill="#282B4C"/>
<path d="M655.095 363.264L622.948 353.337L602.212 355.011L621.237 323.688L668.74 338.406L661.917 350.835L655.095 363.264Z" fill="#282B4C"/>
<path d="M679.209 449.671L663.11 423.029L641.626 402.34L656.777 377.242L675.058 394.917L693.31 424.334L679.209 449.671Z" fill="#282B4C"/>
<path d="M635.547 398.682L600.777 388.335L580.188 389.948L597.616 363.045L617.929 361.921L649.944 373.943L635.547 398.682Z" fill="#282B4C"/>
<path d="M733.969 351.92L717.87 325.278L696.385 304.589L711.537 279.49L736.148 301.467L748.069 326.582L733.969 351.92Z" fill="#282B4C"/>
<path d="M690.468 297.186L655.698 286.839L637.585 289.201L653.715 263.373L672.783 262.195L704.865 272.447L690.468 297.186Z" fill="#282B4C"/>
<path d="M718.312 384.298L702.213 357.656L680.728 336.967L695.88 311.868L714.329 331.553L732.412 358.96L718.312 384.298Z" fill="#282B4C"/>
<path d="M673.303 329.475L638.532 319.128L620.654 322.001L635.372 293.838L653.941 292.639L687.699 304.736L673.303 329.475Z" fill="#282B4C"/>
<path d="M773.828 280.848L757.729 254.206L738.275 235.73L752.251 209.35L787.929 255.511L773.828 280.848Z" fill="#282B4C"/>
<path d="M730.899 230.412L698.752 220.485L678.016 222.158L697.041 190.836L744.544 205.553L737.721 217.983L730.899 230.412Z" fill="#282B4C"/>
<path d="M755.013 316.819L738.914 290.177L717.43 269.488L732.582 244.389L750.862 262.065L769.114 291.481L755.013 316.819Z" fill="#282B4C"/>
<path d="M711.351 265.83L676.581 255.483L655.992 257.096L673.42 230.193L693.733 229.069L725.748 241.091L711.351 265.83Z" fill="#282B4C"/>
<path d="M809.902 216.07L793.803 189.428L772.319 168.739L787.471 143.641L812.082 165.617L824.003 190.733L809.902 216.07Z" fill="#282B4C"/>
<path d="M766.402 161.336L731.631 150.989L713.519 153.352L729.649 127.524L748.717 126.346L780.799 136.598L766.402 161.336Z" fill="#282B4C"/>
<path d="M794.245 248.448L778.146 221.806L756.662 201.117L771.814 176.019L790.263 195.703L808.346 223.111L794.245 248.448Z" fill="#282B4C"/>
<path d="M749.236 193.625L714.466 183.278L696.588 186.152L711.306 157.989L729.875 156.789L763.633 168.887L749.236 193.625Z" fill="#282B4C"/>
<path d="M849.762 144.998L833.663 118.357L814.208 99.8809L828.185 73.5006L863.862 119.661L849.762 144.998Z" fill="#282B4C"/>
<path d="M806.832 94.5624L774.686 84.6351L753.95 86.3089L772.975 54.9861L820.477 69.7038L813.655 82.1331L806.832 94.5624Z" fill="#282B4C"/>
<path d="M830.947 180.969L814.848 154.327L793.364 133.638L808.516 108.54L826.796 126.215L845.048 155.632L830.947 180.969Z" fill="#282B4C"/>
<path d="M787.284 129.98L752.514 119.633L731.926 121.246L749.354 94.3435L769.666 93.2191L801.681 105.242L787.284 129.98Z" fill="#282B4C"/>
<path d="M987.368 265.981L977.805 295.604L976.268 325.39L947.382 330.404L947.842 297.412L958.991 271.944L987.368 265.981Z" fill="#282B4C"/>
<path d="M974.557 334.712L989.539 367.751L1003.2 379.878L973.12 384.632L959.729 371.005L946.438 340.059L974.557 334.712Z" fill="#282B4C"/>
<path d="M1022.08 256.576L1012.52 286.199L1010.98 315.986L982.096 320.999L984.865 294.163L993.705 262.54L1022.08 256.576Z" fill="#282B4C"/>
<path d="M1010.19 326.505L1025.17 359.543L1039.07 371.16L1008.15 378.51L995.07 365.275L982.074 331.852L1010.19 326.505Z" fill="#282B4C"/>
<path d="M907.57 282.477L898.006 312.1L896.81 338.903L867.727 345.644L879.193 288.441L907.57 282.477Z" fill="#282B4C"/>
<path d="M897.629 347.959L911.208 378.742L926.067 393.302L889.942 399.472L869.912 353.953L883.771 350.956L897.629 347.959Z" fill="#282B4C"/>
<path d="M947.066 273.102L937.503 302.725L935.966 332.511L907.08 337.525L908.443 312.133L918.689 279.066L947.066 273.102Z" fill="#282B4C"/>
<path d="M937.189 339.5L952.171 372.539L966.887 387.028L935.147 391.505L920.981 376.904L909.07 344.847L937.189 339.5Z" fill="#282B4C"/>
<path d="M837.353 295.838L827.79 325.461L826.253 355.248L797.367 360.261L797.827 327.27L808.976 301.802L837.353 295.838Z" fill="#282B4C"/>
<path d="M824.542 364.57L839.524 397.608L853.183 409.736L823.105 414.489L809.714 400.863L796.423 369.917L824.542 364.57Z" fill="#282B4C"/>
<path d="M870.787 291.386L861.773 318.882L860.753 346.67L832.081 350.857L834.378 325.846L842.638 296.469L870.787 291.386Z" fill="#282B4C"/>
<path d="M860.177 356.362L875.16 389.401L889.05 401.018L858.135 408.367L845.055 395.132L832.058 361.71L860.177 356.362Z" fill="#282B4C"/>
<path d="M757.554 312.335L747.991 341.957L746.794 368.76L717.711 375.501L729.177 318.298L757.554 312.335Z" fill="#282B4C"/>
<path d="M747.614 377.817L761.193 408.599L776.051 423.16L739.927 429.329L719.897 383.811L733.755 380.814L747.614 377.817Z" fill="#282B4C"/>
<path d="M797.051 302.959L787.488 332.582L785.951 362.369L757.065 367.382L758.428 341.991L768.674 308.923L797.051 302.959Z" fill="#282B4C"/>
<path d="M787.174 369.358L802.156 402.396L816.872 416.886L785.132 421.363L770.966 406.762L759.055 374.705L787.174 369.358Z" fill="#282B4C"/>
<path d="M684.99 327.563L675.427 357.186L673.89 386.973L645.004 391.986L645.464 358.995L656.613 333.527L684.99 327.563Z" fill="#282B4C"/>
<path d="M672.178 395.598L687.161 427.318L700.819 438.962L670.742 443.526L657.351 430.443L644.06 400.732L672.178 395.598Z" fill="#282B4C"/>
<path d="M719.703 318.159L710.14 347.782L708.603 377.568L679.717 382.582L682.486 355.746L691.327 324.123L719.703 318.159Z" fill="#282B4C"/>
<path d="M707.814 387.718L722.796 419.439L736.687 430.592L705.772 437.648L692.692 424.941L679.695 392.852L707.814 387.718Z" fill="#282B4C"/>
<path d="M605.191 344.059L595.628 373.682L594.431 400.485L565.348 407.226L576.814 350.023L605.191 344.059Z" fill="#282B4C"/>
<path d="M595.251 409.542L608.83 440.324L623.688 454.885L587.564 461.054L567.534 415.535L581.392 412.539L595.251 409.542Z" fill="#282B4C"/>
<path d="M644.688 334.684L635.125 364.307L633.588 394.094L604.702 399.107L606.064 373.716L616.311 340.648L644.688 334.684Z" fill="#282B4C"/>
<path d="M634.811 401.083L649.793 434.121L664.509 448.611L632.768 453.088L618.603 438.487L606.692 406.43L634.811 401.083Z" fill="#282B4C"/>
<line x1="1081.32" y1="381.679" x2="586.502" y2="479.679" stroke="#282B4C" stroke-width="13"/>
</g>
</svg>
