<svg width="446" height="196" viewBox="0 0 446 196" fill="none" xmlns="http://www.w3.org/2000/svg">
<g filter="url(#filter0_d_281_662)">
<path d="M73.7967 20.5421C74.8212 17.81 77.4331 16 80.351 16L418.713 16C423.475 16 426.847 20.6512 425.366 25.1767L378.906 167.177C377.965 170.054 375.28 172 372.253 172H27.101C22.2136 172 18.8306 167.118 20.5467 162.542L73.7967 20.5421Z" fill="#D9D9D9"/>
<path d="M80.351 12C75.7657 12 71.6614 14.8443 70.0514 19.1376L16.8014 161.138C14.1047 168.329 19.4208 176 27.101 176H372.253C377.01 176 381.228 172.942 382.708 168.421L429.168 26.4206C431.495 19.3091 426.196 12 418.713 12H80.351Z" stroke="#FF3F3F" stroke-width="8"/>
</g>
<defs>
<filter id="filter0_d_281_662" x="0.587402" y="0.5" width="444.637" height="195" filterUnits="userSpaceOnUse" color-interpolation-filters="sRGB">
<feFlood flood-opacity="0" result="BackgroundImageFix"/>
<feColorMatrix in="SourceAlpha" type="matrix" values="0 0 0 0 0 0 0 0 0 0 0 0 0 0 0 0 0 0 127 0" result="hardAlpha"/>
<feOffset dy="4"/>
<feGaussianBlur stdDeviation="5.75"/>
<feComposite in2="hardAlpha" operator="out"/>
<feColorMatrix type="matrix" values="0 0 0 0 1 0 0 0 0 0.99314 0 0 0 0 0.828499 0 0 0 0.25 0"/>
<feBlend mode="normal" in2="BackgroundImageFix" result="effect1_dropShadow_281_662"/>
<feBlend mode="normal" in="SourceGraphic" in2="effect1_dropShadow_281_662" result="shape"/>
</filter>
</defs>
</svg>
