<svg width="416" height="231" viewBox="0 0 416 231" fill="none" xmlns="http://www.w3.org/2000/svg">
<path d="M415.342 9C415.342 5.134 412.208 2 408.342 2H403.334V15.3882H415.342V9Z" fill="#282B4C"/>
<rect width="12.0082" height="13.3882" transform="matrix(-1 0 0 1 403.334 15.3882)" fill="#282B4C"/>
<rect width="12.0082" height="13.3882" transform="matrix(-1 0 0 1 415.342 28.7764)" fill="#282B4C"/>
<rect width="12.0082" height="13.3882" transform="matrix(-1 0 0 1 403.334 42.1645)" fill="#282B4C"/>
<rect width="12.0082" height="13.3882" transform="matrix(-1 0 0 1 391.326 2)" fill="#282B4C"/>
<rect width="12.0082" height="13.3882" transform="matrix(-1 0 0 1 391.326 28.7764)" fill="#282B4C"/>
<rect width="12.0082" height="13.3882" transform="matrix(-1 0 0 1 379.318 15.3882)" fill="#282B4C"/>
<rect width="12.0082" height="13.3882" transform="matrix(-1 0 0 1 365.704 2.73044)" fill="#282B4C"/>
<rect width="12.0082" height="13.3882" transform="matrix(-1 0 0 1 367.309 28.7764)" fill="#282B4C"/>
<rect width="12.0082" height="13.3882" transform="matrix(-1 0 0 1 367.31 55.5527)" fill="#282B4C"/>
<rect width="12.0082" height="13.3882" transform="matrix(-1 0 0 1 355.301 42.1645)" fill="#282B4C"/>
<path d="M351.985 18.83H341.778L339.977 30.5447H351.985V18.83Z" fill="#282B4C"/>
<path d="M328.753 36.7081H321.098L319.747 45.4104H328.753V36.7081Z" fill="#282B4C"/>
<path d="M337.889 55.5527H330.234L328.883 64.255H337.889V55.5527Z" fill="#282B4C"/>
<path d="M351.921 69.9549L339.742 68.4387L338.163 78.6102H348.69L351.921 69.9549Z" fill="#282B4C"/>
<path d="M314.365 68.1061H308.751L307.76 74.1308H314.365V68.1061Z" fill="#282B4C"/>
<path d="M296.342 57.0205L292.816 53.7385L289.5 56.7564L293.648 60.6175L296.342 57.0205Z" fill="#282B4C"/>
<path d="M312.899 30.0261H305.244L303.893 38.7284H312.899V30.0261Z" fill="#282B4C"/>
<rect width="12.0082" height="13.3882" transform="matrix(-1 0 0 1 379.318 42.1645)" fill="#282B4C"/>
<path d="M415.342 55.5527H403.334V68.9409H415.342V55.5527Z" fill="#282B4C"/>
<rect width="12.0082" height="13.3882" transform="matrix(-1 0 0 1 391.326 55.5527)" fill="#282B4C"/>
<rect width="12.0082" height="13.3882" transform="matrix(-1 0 0 1 403.566 68.722)" fill="#282B4C"/>
<rect width="12.0082" height="13.3882" transform="matrix(-1 0 0 1 379.053 69.1136)" fill="#282B4C"/>
<rect width="12.0082" height="13.3882" transform="matrix(-1 0 0 1 415.342 81)" fill="#282B4C"/>
<rect width="12.0082" height="13.3882" transform="matrix(-1 0 0 1 403.334 94.3882)" fill="#282B4C"/>
<rect width="12.0082" height="13.3882" transform="matrix(-1 0 0 1 415.342 107.776)" fill="#282B4C"/>
<rect width="12.0082" height="13.3882" transform="matrix(-1 0 0 1 403.334 121.165)" fill="#282B4C"/>
<rect width="12.0082" height="13.3882" transform="matrix(-1 0 0 1 391.326 81)" fill="#282B4C"/>
<rect width="12.0082" height="13.3882" transform="matrix(-1 0 0 1 391.326 107.776)" fill="#282B4C"/>
<rect width="12.0082" height="13.3882" transform="matrix(-1 0 0 1 379.318 94.3882)" fill="#282B4C"/>
<rect width="12.0082" height="13.3882" transform="matrix(-1 0 0 1 367.309 107.776)" fill="#282B4C"/>
<rect width="12.0082" height="13.3882" transform="matrix(-1 0 0 1 367.31 134.553)" fill="#282B4C"/>
<rect width="12.0082" height="13.3882" transform="matrix(-1 0 0 1 355.301 121.165)" fill="#282B4C"/>
<path d="M351.985 97.83H341.778L339.977 109.545H351.985V97.83Z" fill="#282B4C"/>
<path d="M328.753 115.708H321.098L319.747 124.41H328.753V115.708Z" fill="#282B4C"/>
<path d="M337.889 134.553H330.234L328.883 143.255H337.889V134.553Z" fill="#282B4C"/>
<path d="M351.921 148.955L339.742 147.439L338.163 157.61H348.69L351.921 148.955Z" fill="#282B4C"/>
<path d="M314.365 147.106H308.751L307.76 153.131H314.365V147.106Z" fill="#282B4C"/>
<path d="M284.342 136.861L280.816 133.579L277.5 136.597L281.648 140.458L284.342 136.861Z" fill="#282B4C"/>
<path d="M267.342 107.861L263.816 104.579L260.5 107.597L264.648 111.458L267.342 107.861Z" fill="#282B4C"/>
<path d="M312.506 123H304.851L303.5 131.702H312.506V123Z" fill="#282B4C"/>
<path d="M295.506 118H287.851L286.5 126.702H295.506V118Z" fill="#282B4C"/>
<rect width="12.0082" height="13.3882" transform="matrix(-1 0 0 1 379.318 121.165)" fill="#282B4C"/>
<path d="M415.342 134.553H403.334V147.941H415.342V134.553Z" fill="#282B4C"/>
<rect width="12.0082" height="13.3882" transform="matrix(-1 0 0 1 391.326 134.553)" fill="#282B4C"/>
<rect width="12.0082" height="13.3882" transform="matrix(-1 0 0 1 403.566 147.722)" fill="#282B4C"/>
<rect width="12.0082" height="13.3882" transform="matrix(-1 0 0 1 379.053 148.114)" fill="#282B4C"/>
<rect width="12.0082" height="13.3882" transform="matrix(-1 0 0 1 415.342 161)" fill="#282B4C"/>
<rect width="12.0082" height="13.3882" transform="matrix(-1 0 0 1 403.334 174.388)" fill="#282B4C"/>
<rect width="12.0082" height="13.3882" transform="matrix(-1 0 0 1 415.342 187.776)" fill="#282B4C"/>
<rect width="12.0082" height="13.3882" transform="matrix(-1 0 0 1 403.334 201.165)" fill="#282B4C"/>
<rect width="12.0082" height="13.3882" transform="matrix(-1 0 0 1 391.326 161)" fill="#282B4C"/>
<rect width="12.0082" height="13.3882" transform="matrix(-1 0 0 1 391.326 187.776)" fill="#282B4C"/>
<rect width="12.0082" height="13.3882" transform="matrix(-1 0 0 1 379.318 174.388)" fill="#282B4C"/>
<rect width="12.0082" height="13.3882" transform="matrix(-1 0 0 1 367.508 161)" fill="#282B4C"/>
<rect width="12.0082" height="13.3882" transform="matrix(-1 0 0 1 365.508 82)" fill="#282B4C"/>
<rect width="12.0082" height="13.3882" transform="matrix(-1 0 0 1 367.309 187.776)" fill="#282B4C"/>
<rect width="12.0082" height="13.3882" transform="matrix(-1 0 0 1 367.31 214.553)" fill="#282B4C"/>
<rect width="12.0082" height="13.3882" transform="matrix(-1 0 0 1 355.301 201.165)" fill="#282B4C"/>
<path d="M351.985 177.83H341.778L339.977 189.545H351.985V177.83Z" fill="#282B4C"/>
<path d="M328.753 195.708H321.098L319.747 204.41H328.753V195.708Z" fill="#282B4C"/>
<path d="M337.889 214.553H330.234L328.883 223.255H337.889V214.553Z" fill="#282B4C"/>
<path d="M296.342 216.02L292.816 212.739L289.5 215.756L293.648 219.618L296.342 216.02Z" fill="#282B4C"/>
<path d="M319.506 178H311.851L310.5 186.702H319.506V178Z" fill="#282B4C"/>
<rect width="12.0082" height="13.3882" transform="matrix(-1 0 0 1 379.318 201.165)" fill="#282B4C"/>
<path d="M415.342 214.553H403.334V227.941H407.342C411.761 227.941 415.342 224.359 415.342 219.941V214.553Z" fill="#282B4C"/>
<rect width="12.0082" height="13.3882" transform="matrix(-1 0 0 1 391.326 214.553)" fill="#282B4C"/>
<g style="mix-blend-mode:hard-light">
<path d="M0 9C0 4.02944 4.02944 0 9 0H152.5L257.5 230.5H9C4.02944 230.5 0 226.471 0 221.5V9Z" fill="#2C2C2C"/>
</g>
</svg>
