<svg width="211" height="59" viewBox="0 0 211 59" fill="none" xmlns="http://www.w3.org/2000/svg">
<g filter="url(#filter0_d_344_180)">
<path d="M27.3025 10H227L211.698 48H12L27.3025 10Z" fill="#FFC700"/>
<path d="M26.3737 5H227L211.626 45H11L26.3737 5Z" fill="#F23030"/>
<g style="mix-blend-mode:darken">
<mask id="mask0_344_180" style="mask-type:alpha" maskUnits="userSpaceOnUse" x="52" y="5" width="175" height="40">
<path d="M64.4555 5H227L211.5 45H52L64.4555 5Z" fill="#FA4646"/>
</mask>
<g mask="url(#mask0_344_180)">
<rect width="9.30014" height="8.2969" transform="matrix(-0.988111 -0.153741 -0.153741 0.988111 212.593 8.46733)" fill="#BFAE5A"/>
<rect width="9.30014" height="8.2969" transform="matrix(-0.988111 -0.153741 -0.153741 0.988111 220.507 18.0954)" fill="#BFAE5A"/>
<rect width="9.30014" height="8.2969" transform="matrix(-0.988111 -0.153741 -0.153741 0.988111 210.041 24.8638)" fill="#BFAE5A"/>
<rect width="9.30014" height="8.2969" transform="matrix(-0.988111 -0.153741 -0.153741 0.988111 204.678 -1.16077)" fill="#BFAE5A"/>
<rect width="9.30014" height="8.2969" transform="matrix(-0.988111 -0.153741 -0.153741 0.988111 202.127 15.2358)" fill="#BFAE5A"/>
<rect width="9.30014" height="8.2969" transform="matrix(-0.988111 -0.153741 -0.153741 0.988111 194.213 5.6077)" fill="#BFAE5A"/>
<rect width="9.30014" height="8.2969" transform="matrix(-0.988111 -0.153741 -0.153741 0.988111 183.748 12.3761)" fill="#BFAE5A"/>
<rect width="9.30014" height="8.2969" transform="matrix(-0.988111 -0.153741 -0.153741 0.988111 181.197 28.7727)" fill="#BFAE5A"/>
<rect width="9.30014" height="8.2969" transform="matrix(-0.988111 -0.153741 -0.153741 0.988111 173.283 19.1446)" fill="#BFAE5A"/>
<path d="M172.968 4.46077L165.157 3.24543L162.663 10.2044L171.852 11.6342L172.968 4.46077Z" fill="#BFAE5A"/>
<path d="M158.721 15.0724L152.863 14.1609L151 19.3289L157.892 20.4012L158.721 15.0724Z" fill="#BFAE5A"/>
<path d="M154.721 26.0724L148.863 25.1609L147 30.3289L153.892 31.4012L154.721 26.0724Z" fill="#BFAE5A"/>
<path d="M168.049 35.7596L158.873 33.381L156.695 39.4216L164.751 40.675L168.049 35.7596Z" fill="#BFAE5A"/>
<path d="M141.884 32.6593L137.587 31.9909L136.255 35.5622L141.31 36.3486L141.884 32.6593Z" fill="#BFAE5A"/>
<path d="M137.059 21.6489L134.674 19.2194L131.849 20.6726L134.655 23.5309L137.059 21.6489Z" fill="#BFAE5A"/>
<path d="M150.334 7.01693L144.475 6.10542L142.612 11.2734L149.505 12.3458L150.334 7.01693Z" fill="#BFAE5A"/>
<rect width="9.30014" height="8.2969" transform="matrix(-0.988111 -0.153741 -0.153741 0.988111 191.662 22.0042)" fill="#BFAE5A"/>
<path d="M217.955 34.4919L208.766 33.0621L207.49 41.2603L216.68 42.6901L217.955 34.4919Z" fill="#BFAE5A"/>
<rect width="9.30014" height="8.2969" transform="matrix(-0.988111 -0.153741 -0.153741 0.988111 199.576 31.6323)" fill="#BFAE5A"/>
<rect width="9.30014" height="8.2969" transform="matrix(-0.988111 -0.153741 -0.153741 0.988111 207.688 41.1539)" fill="#BFAE5A"/>
<rect width="9.30014" height="8.2969" transform="matrix(-0.988111 -0.153741 -0.153741 0.988111 188.892 38.4751)" fill="#BFAE5A"/>
</g>
</g>
<path d="M33.728 32.24C32.688 32.24 31.72 32.16 30.824 32C29.928 31.824 29.192 31.584 28.616 31.28L29.408 27.56C30.064 27.896 30.808 28.168 31.64 28.376C32.472 28.584 33.272 28.688 34.04 28.688C34.84 28.688 35.456 28.624 35.888 28.496C36.32 28.352 36.592 28.04 36.704 27.56C36.72 27.496 36.728 27.416 36.728 27.32C36.728 26.92 36.48 26.624 35.984 26.432C35.488 26.24 34.752 25.976 33.776 25.64C32.688 25.256 31.864 24.792 31.304 24.248C30.744 23.688 30.464 22.968 30.464 22.088C30.464 21.912 30.472 21.736 30.488 21.56C30.504 21.368 30.536 21.168 30.584 20.96C30.904 19.44 31.656 18.288 32.84 17.504C34.04 16.704 35.768 16.304 38.024 16.304C38.872 16.304 39.728 16.376 40.592 16.52C41.472 16.664 42.168 16.824 42.68 17L41.888 20.744C41.2 20.44 40.528 20.224 39.872 20.096C39.216 19.968 38.584 19.904 37.976 19.904C37.272 19.904 36.656 19.96 36.128 20.072C35.616 20.184 35.304 20.472 35.192 20.936C35.176 20.984 35.168 21.056 35.168 21.152C35.168 21.456 35.368 21.688 35.768 21.848C36.168 22.008 36.832 22.232 37.76 22.52C39.152 22.936 40.12 23.448 40.664 24.056C41.208 24.664 41.48 25.384 41.48 26.216C41.48 26.424 41.464 26.64 41.432 26.864C41.4 27.088 41.36 27.32 41.312 27.56C41.12 28.488 40.744 29.304 40.184 30.008C39.64 30.712 38.848 31.264 37.808 31.664C36.768 32.048 35.408 32.24 33.728 32.24ZM45.4559 32L48.0239 19.904H43.6799L44.3759 16.544H57.5759L56.8799 19.904H52.5359L49.9679 32H45.4559ZM52.982 32L62.174 16.544H66.95L69.614 32H64.91L64.358 28.712H59.654L57.686 32H52.982ZM60.926 25.472H64.382L63.614 20.936L60.926 25.472ZM71.3219 32L74.5859 16.544H82.6259C84.0979 16.544 85.2179 16.92 85.9859 17.672C86.7539 18.408 87.1379 19.392 87.1379 20.624C87.1379 21.056 87.0899 21.528 86.9939 22.04C86.7699 23.08 86.3139 24 85.6259 24.8C84.9379 25.584 84.1139 26.184 83.1539 26.6C83.3139 26.744 83.4339 26.92 83.5139 27.128C83.5939 27.32 83.6739 27.592 83.7539 27.944L84.6899 32H79.9859L79.1219 28.28C79.0579 27.992 78.9459 27.792 78.7859 27.68C78.6259 27.552 78.3779 27.488 78.0419 27.488H76.7699L75.8339 32H71.3219ZM77.5139 24.032H79.8899C81.2659 24.032 82.0979 23.368 82.3859 22.04C82.4179 21.896 82.4419 21.76 82.4579 21.632C82.4739 21.504 82.4819 21.384 82.4819 21.272C82.4819 20.856 82.3619 20.544 82.1219 20.336C81.8819 20.112 81.4739 20 80.8979 20H78.3779L77.5139 24.032ZM89.9638 32L92.5318 19.904H88.1878L88.8838 16.544H102.084L101.388 19.904H97.0438L94.4758 32H89.9638Z" fill="white"/>
</g>
<defs>
<filter id="filter0_d_344_180" x="0" y="-3" width="248" height="62" filterUnits="userSpaceOnUse" color-interpolation-filters="sRGB">
<feFlood flood-opacity="0" result="BackgroundImageFix"/>
<feColorMatrix in="SourceAlpha" type="matrix" values="0 0 0 0 0 0 0 0 0 0 0 0 0 0 0 0 0 0 127 0" result="hardAlpha"/>
<feOffset dx="-4" dy="4"/>
<feGaussianBlur stdDeviation="3.5"/>
<feComposite in2="hardAlpha" operator="out"/>
<feColorMatrix type="matrix" values="0 0 0 0 0.581331 0 0 0 0 0.570479 0 0 0 0 0.570479 0 0 0 0.5 0"/>
<feBlend mode="normal" in2="BackgroundImageFix" result="effect1_dropShadow_344_180"/>
<feBlend mode="normal" in="SourceGraphic" in2="effect1_dropShadow_344_180" result="shape"/>
</filter>
</defs>
</svg>
